{
  "accessors": [
    {
      "bufferView": 2,
      "componentType": 5126,
      "count": 6259,
      "max": [
        270.40341186523438,
        814.29901123046875,
        84.813095092773438
      ],
      "min": [
        -199.30978393554688,
        25.29730224609375,
        -93.710800170898438
      ],
      "type": "VEC3"
    },
    {
      "bufferView": 2,
      "byteOffset": 75108,
      "componentType": 5126,
      "count": 6259,
      "max": [
        0.99981778860092163,
        0.99814683198928833,
        0.99983102083206177
      ],
      "min": [
        -0.99991726875305176,
        -0.99998819828033447,
        -0.99957668781280518
      ],
      "type": "VEC3"
    },
    {
      "bufferView": 3,
      "componentType": 5126,
      "count": 6259,
      "max": [
        0.99999153614044189,
        0.99971169233322144,
        0.9998098611831665,
        1
      ],
      "min": [
        -0.99991625547409058,
        -0.99835944175720215,
        -0.99892199039459229,
        -1
      ],
      "type": "VEC4"
    },
    {
      "bufferView": 1,
      "componentType": 5126,
      "count": 6259,
      "max": [
        0.99099999666213989,
        0.99400001764297485
      ],
      "min": [
        0.0078999996185302734,
        0.0074999998323619366
      ],
      "type": "VEC2"
    },
    {
      "bufferView": 0,
      "componentType": 5125,
      "count": 29742,
      "max": [
        6258
      ],
      "min": [
        0
      ],
      "type": "SCALAR"
    },
    {
      "bufferView": 2,
      "byteOffset": 150216,
      "componentType": 5126,
      "count": 21,
      "max": [
        64.4468994140625,
        759.0228271484375,
        57.766799926757812
      ],
      "min": [
        43.092998504638672,
        749.23187255859375,
        45.981098175048828
      ],
      "type": "VEC3"
    },
    {
      "bufferView": 2,
      "byteOffset": 150468,
      "componentType": 5126,
      "count": 21,
      "max": [
        0.74862700700759888,
        0.51431059837341309,
        0.9869072437286377
      ],
      "min": [
        0.096242383122444153,
        -0.74193507432937622,
        0.2701764702796936
      ],
      "type": "VEC3"
    },
    {
      "bufferView": 3,
      "byteOffset": 100144,
      "componentType": 5126,
      "count": 21,
      "max": [
        -0.2322731614112854,
        0.46770173311233521,
        0.87388521432876587,
        1
      ],
      "min": [
        -0.96458297967910767,
        -0.38795033097267151,
        -0.11526483297348022,
        -1
      ],
      "type": "VEC4"
    },
    {
      "bufferView": 1,
      "byteOffset": 50072,
      "componentType": 5126,
      "count": 21,
      "max": [
        0.48710000514984131,
        0.64550000429153442
      ],
      "min": [
        0.4343000054359436,
        0.56180000305175781
      ],
      "type": "VEC2"
    },
    {
      "bufferView": 0,
      "byteOffset": 118968,
      "componentType": 5125,
      "count": 57,
      "max": [
        20
      ],
      "min": [
        0
      ],
      "type": "SCALAR"
    },
    {
      "bufferView": 2,
      "byteOffset": 150720,
      "componentType": 5126,
      "count": 82,
      "max": [
        60.156200408935547,
        765.211669921875,
        55.519401550292969
      ],
      "min": [
        11.103500366210938,
        740.727294921875,
        40.870998382568359
      ],
      "type": "VEC3"
    },
    {
      "bufferView": 2,
      "byteOffset": 151704,
      "componentType": 5126,
      "count": 82,
      "max": [
        0.95889538526535034,
        0.97191959619522095,
        0.98324990272521973
      ],
      "min": [
        -0.95889824628829956,
        -0.92839699983596802,
        0.11614982783794403
      ],
      "type": "VEC3"
    },
    {
      "bufferView": 3,
      "byteOffset": 100480,
      "componentType": 5126,
      "count": 82,
      "max": [
        0.90028619766235352,
        0.60041362047195435,
        0.99336087703704834,
        1
      ],
      "min": [
        -0.98755508661270142,
        -0.93405055999755859,
        -0.91756486892700195,
        -1
      ],
      "type": "VEC4"
    },
    {
      "bufferView": 1,
      "byteOffset": 50240,
      "componentType": 5126,
      "count": 82,
      "max": [
        0.51020002365112305,
        0.11110000312328339
      ],
      "min": [
        0.42590001225471497,
        0.024499999359250069
      ],
      "type": "VEC2"
    },
    {
      "bufferView": 0,
      "byteOffset": 119196,
      "componentType": 5125,
      "count": 420,
      "max": [
        81
      ],
      "min": [
        0
      ],
      "type": "SCALAR"
    },
    {
      "bufferView": 2,
      "byteOffset": 152688,
      "componentType": 5126,
      "count": 215,
      "max": [
        35.980300903320312,
        787.11041259765625,
        65.910400390625
      ],
      "min": [
        -3.1255989074707031,
        702.6798095703125,
        31.051097869873047
      ],
      "type": "VEC3"
    },
    {
      "bufferView": 2,
      "byteOffset": 155268,
      "componentType": 5126,
      "count": 215,
      "max": [
        0.97796744108200073,
        0.99581813812255859,
        0.99021786451339722
      ],
      "min": [
        -0.99714440107345581,
        -0.94050329923629761,
        -0.92096948623657227
      ],
      "type": "VEC3"
    },
    {
      "bufferView": 3,
      "byteOffset": 101792,
      "componentType": 5126,
      "count": 215,
      "max": [
        0.96214455366134644,
        0.85365080833435059,
        0.9962039589881897,
        1
      ],
      "min": [
        -0.99945670366287231,
        -0.8788946270942688,
        -0.99818629026412964,
        -1
      ],
      "type": "VEC4"
    },
    {
      "bufferView": 1,
      "byteOffset": 50896,
      "componentType": 5126,
      "count": 215,
      "max": [
        0.99210000038146973,
        0.94370001554489136
      ],
      "min": [
        0.38820001482963562,
        0.6305999755859375
      ],
      "type": "VEC2"
    },
    {
      "bufferView": 0,
      "byteOffset": 120876,
      "componentType": 5125,
      "count": 504,
      "max": [
        214
      ],
      "min": [
        0
      ],
      "type": "SCALAR"
    },
    {
      "bufferView": 2,
      "byteOffset": 157848,
      "componentType": 5126,
      "count": 21,
      "max": [
        28.260200500488281,
        759.0228271484375,
        57.766799926757812
      ],
      "min": [
        6.9062995910644531,
        749.23187255859375,
        45.981098175048828
      ],
      "type": "VEC3"
    },
    {
      "bufferView": 2,
      "byteOffset": 158100,
      "componentType": 5126,
      "count": 21,
      "max": [
        -0.096242330968379974,
        0.51431065797805786,
        0.98690718412399292
      ],
      "min": [
        -0.74862706661224365,
        -0.74193227291107178,
        0.27017644047737122
      ],
      "type": "VEC3"
    },
    {
      "bufferView": 3,
      "byteOffset": 105232,
      "componentType": 5126,
      "count": 21,
      "max": [
        0.34159207344055176,
        0.73391801118850708,
        0.83982688188552856,
        1
      ],
      "min": [
        -0.9980931282043457,
        0.02406800352036953,
        -0.99516105651855469,
        -1
      ],
      "type": "VEC4"
    },
    {
      "bufferView": 1,
      "byteOffset": 52616,
      "componentType": 5126,
      "count": 21,
      "max": [
        0.48710000514984131,
        0.64550000429153442
      ],
      "min": [
        0.4343000054359436,
        0.56180000305175781
      ],
      "type": "VEC2"
    },
    {
      "bufferView": 0,
      "byteOffset": 122892,
      "componentType": 5125,
      "count": 57,
      "max": [
        20
      ],
      "min": [
        0
      ],
      "type": "SCALAR"
    }
  ],
  "asset": {
    "extras": {
      "author": "sunliil (https://sketchfab.com/sunliil)",
      "license": "CC-BY-4.0 (http://creativecommons.org/licenses/by/4.0/)",
      "source": "https://sketchfab.com/models/fc46a7e4108948849f3a0d848f35aff7",
      "title": "Steel girl"
    },
    "generator": "Sketchfab-3.18.2",
    "version": "2.0"
  },
  "bufferViews": [
    {
      "buffer": 0,
      "byteLength": 123120,
      "byteOffset": 0,
      "name": "floatBufferViews",
      "target": 34963
    },
    {
      "buffer": 0,
      "byteLength": 52784,
      "byteOffset": 123120,
      "byteStride": 8,
      "name": "floatBufferViews",
      "target": 34962
    },
    {
      "buffer": 0,
      "byteLength": 158352,
      "byteOffset": 175904,
      "byteStride": 12,
      "name": "floatBufferViews",
      "target": 34962
    },
    {
      "buffer": 0,
      "byteLength": 105568,
      "byteOffset": 334256,
      "byteStride": 16,
      "name": "floatBufferViews",
      "target": 34962
    }
  ],
  "buffers": [
    {
      "byteLength": 439824,
      "uri": "scene.bin"
    }
  ],
  "extensionsUsed": [
    "KHR_materials_unlit"
  ],
  "images": [
    {
      "uri": "textures/01___Default_1_baseColor.png"
    },
    {
      "uri": "textures/01___Default_baseColor.png"
    },
    {
      "uri": "textures/01___Default_3_baseColor.png"
    },
    {
      "uri": "textures/01___Default_0_baseColor.png"
    },
    {
      "uri": "textures/01___Default_2_baseColor.png"
    }
  ],
  "materials": [
    {
      "doubleSided": true,
      "emissiveFactor": [
        0,
        0,
        0
      ],
      "extensions": {
        "KHR_materials_unlit": {}
      },
      "name": "01___Default",
      "pbrMetallicRoughness": {
        "baseColorFactor": [
          1,
          1,
          1,
          1
        ],
        "baseColorTexture": {
          "index": 1,
          "texCoord": 0
        },
        "metallicFactor": 0,
        "roughnessFactor": 1
      }
    },
    {
      "doubleSided": true,
      "emissiveFactor": [
        0,
        0,
        0
      ],
      "extensions": {
        "KHR_materials_unlit": {}
      },
      "name": "01___Default_0",
      "pbrMetallicRoughness": {
        "baseColorFactor": [
          1,
          1,
          1,
          1
        ],
        "baseColorTexture": {
          "index": 3,
          "texCoord": 0
        },
        "metallicFactor": 0,
        "roughnessFactor": 1
      }
    },
    {
      "doubleSided": true,
      "emissiveFactor": [
        0,
        0,
        0
      ],
      "extensions": {
        "KHR_materials_unlit": {}
      },
      "name": "01___Default_1",
      "pbrMetallicRoughness": {
        "baseColorFactor": [
          1,
          1,
          1,
          1
        ],
        "baseColorTexture": {
          "index": 0,
          "texCoord": 0
        },
        "metallicFactor": 0,
        "roughnessFactor": 1
      }
    },
    {
      "doubleSided": true,
      "emissiveFactor": [
        0,
        0,
        0
      ],
      "extensions": {
        "KHR_materials_unlit": {}
      },
      "name": "01___Default_2",
      "pbrMetallicRoughness": {
        "baseColorFactor": [
          1,
          1,
          1,
          1
        ],
        "baseColorTexture": {
          "index": 4,
          "texCoord": 0
        },
        "metallicFactor": 0,
        "roughnessFactor": 1
      }
    },
    {
      "doubleSided": true,
      "emissiveFactor": [
        0,
        0,
        0
      ],
      "extensions": {
        "KHR_materials_unlit": {}
      },
      "name": "01___Default_3",
      "pbrMetallicRoughness": {
        "baseColorFactor": [
          1,
          1,
          1,
          1
        ],
        "baseColorTexture": {
          "index": 2,
          "texCoord": 0
        },
        "metallicFactor": 0,
        "roughnessFactor": 1
      }
    }
  ],
  "meshes": [
    {
      "name": "low2_01___Default_0",
      "primitives": [
        {
          "attributes": {
            "NORMAL": 1,
            "POSITION": 0,
            "TANGENT": 2,
            "TEXCOORD_0": 3
          },
          "indices": 4,
          "material": 0,
          "mode": 4
        }
      ]
    },
    {
      "name": "Object001_01___Default_0",
      "primitives": [
        {
          "attributes": {
            "NORMAL": 6,
            "POSITION": 5,
            "TANGENT": 7,
            "TEXCOORD_0": 8
          },
          "indices": 9,
          "material": 1,
          "mode": 4
        }
      ]
    },
    {
      "name": "Object004_01___Default_0",
      "primitives": [
        {
          "attributes": {
            "NORMAL": 11,
            "POSITION": 10,
            "TANGENT": 12,
            "TEXCOORD_0": 13
          },
          "indices": 14,
          "material": 2,
          "mode": 4
        }
      ]
    },
    {
      "name": "Object005_01___Default_0",
      "primitives": [
        {
          "attributes": {
            "NORMAL": 16,
            "POSITION": 15,
            "TANGENT": 17,
            "TEXCOORD_0": 18
          },
          "indices": 19,
          "material": 3,
          "mode": 4
        }
      ]
    },
    {
      "name": "Object006_01___Default_0",
      "primitives": [
        {
          "attributes": {
            "NORMAL": 21,
            "POSITION": 20,
            "TANGENT": 22,
            "TEXCOORD_0": 23
          },
          "indices": 24,
          "material": 4,
          "mode": 4
        }
      ]
    }
  ],
  "nodes": [
    {
      "children": [
        1
      ],
      "name": "RootNode (gltf orientation matrix)",
      "rotation": [
        -0.70710678118654746,
        -0,
        -0,
        0.70710678118654757
      ]
    },
    {
      "children": [
        2
      ],
      "name": "RootNode (model correction matrix)"
    },
    {
      "children": [
        3
      ],
      "matrix": [
        1,
        0,
        0,
        0,
        0,
        0,
        1,
        0,
        0,
        -1,
        0,
        0,
        0,
        0,
        0,
        1
      ],
      "name": "final.fbx"
    },
    {
      "children": [
        4,
        6,
        8,
        10,
        12
      ],
      "name": "RootNode"
    },
    {
      "children": [
        5
      ],
      "name": "low2"
    },
    {
      "mesh": 0,
      "name": "low2_01___Default_0"
    },
    {
      "children": [
        7
      ],
      "name": "Object001"
    },
    {
      "mesh": 1,
      "name": "Object001_01___Default_0"
    },
    {
      "children": [
        9
      ],
      "name": "Object004"
    },
    {
      "mesh": 2,
      "name": "Object004_01___Default_0"
    },
    {
      "children": [
        11
      ],
      "name": "Object005"
    },
    {
      "mesh": 3,
      "name": "Object005_01___Default_0"
    },
    {
      "children": [
        13
      ],
      "name": "Object006"
    },
    {
      "mesh": 4,
      "name": "Object006_01___Default_0"
    }
  ],
  "samplers": [
    {
      "magFilter": 9729,
      "minFilter": 9987,
      "wrapS": 10497,
      "wrapT": 10497
    }
  ],
  "scene": 0,
  "scenes": [
    {
      "name": "OSG_Scene",
      "nodes": [
        0
      ]
    }
  ],
  "textures": [
    {
      "sampler": 0,
      "source": 0
    },
    {
      "sampler": 0,
      "source": 1
    },
    {
      "sampler": 0,
      "source": 2
    },
    {
      "sampler": 0,
      "source": 3
    },
    {
      "sampler": 0,
      "source": 4
    }
  ]
}

